{"title":"Struck By Lightning 2012 VODRIP XviD NOGRP","uid":7946407,"size":1319565031,"categoryP":"video","categoryS":"movies","magnet":"?xt=urn:btih:8106db5361fb124932ebc8f41d188095c1561e47&amp;dn=Struck+By+Lightning+2012+VODRIP+XviD+NOGRP&amp;tr=udp%3A%2F%2Ftracker.openbittorrent.com%3A80&amp;tr=udp%3A%2F%2Fopen.demonii.com%3A1337&amp;tr=udp%3A%2F%2Ftracker.coppersurfer.tk%3A6969&amp;tr=udp%3A%2F%2Fexodus.desync.com%3A6969","seeders":0,"leechers":0,"uploader":"juggs99","files":2,"time":1356140936,"description":" &lt;a href=&quot;http://img.perezhilton.com/wp-content/uploads/2012/06/struck-by-lightning__oPt.jpg&quot; rel=&quot;nofollow&quot; target=&quot;_NEW&quot;&gt;http://img.perezhilton.com/wp-content/uploads/2012/06/struck-by-lightning__oPt.jpg&lt;/a&gt;\n\n\n\nFile size : 1.23 GiB\nDuration : 1h 24mn\nOverall bit rate mode : Variable\nOverall bit rate : 2 092 Kbps\nWriting application : BandiAviMuxer 1.0\n\n\nVideo\nID : 0\nFormat : MPEG Video\nFormat version : Version 1\nFormat settings, BVOP : No\nFormat settings, Matrix : Default\nCodec ID : MPEG\nCodec ID/Info : Chromatic MPEG 1 Video I Frame\nDuration : 1h 24mn\nBit rate mode : Variable\nBit rate : 1 883 Kbps\nWidth : 1 008 pixels\nHeight : 564 pixels\nDisplay aspect ratio : 16:9\nFrame rate : 30.000 fps\nColor space : YUV\nChroma subsampling : 4:2:0\nBit depth : 8 bits\nScan type : Progressive\nCompression mode : Lossy\nBits/(Pixel*Frame) : 0.110\nStream size : 1.11 GiB (90%)\n\n\nAudio\nID : 1\nFormat : MPEG Audio\nFormat version : Version 1\nFormat profile : Layer 2\nCodec ID : 50\nDuration : 1h 24mn\nBit rate mode : Constant\nBit rate : 192 Kbps\nChannel(s) : 2 channels\nSampling rate : 48.0 KHz\nCompression mode : Lossy\nStream size : 115 MiB (9%)\nAlignment : Aligned on interleaves\nInterleave, duration : 24 ms (0.72 video frame)\n\n\nIMDB URL http://www.imdb.com/title/tt1791614/\n\n\n\n\nAfter being struck and killed by lightning, a young man recounts the way he blackmailed his fellow classmates into contributing to his literary magazine.\n\n\n &lt;a href=&quot;\nhttp://www.shotpix.com/images/50175787997775994735.png&quot; rel=&quot;nofollow&quot; target=&quot;_NEW&quot;&gt;\nhttp://www.shotpix.com/images/50175787997775994735.png&lt;/a&gt; &lt;a href=&quot;\nhttp://www.shotpix.com/images/49399603606445720601.png&quot; rel=&quot;nofollow&quot; target=&quot;_NEW&quot;&gt;\nhttp://www.shotpix.com/images/49399603606445720601.png&lt;/a&gt; &lt;a href=&quot;\nhttp://www.shotpix.com/images/09194190081870253892.png&quot; rel=&quot;nofollow&quot; target=&quot;_NEW&quot;&gt;\nhttp://www.shotpix.com/images/09194190081870253892.png&lt;/a&gt;","torrent":{"xt":"urn:btih:8106db5361fb124932ebc8f41d188095c1561e47","amp;dn":"Struck+By+Lightning+2012+VODRIP+XviD+NOGRP","amp;tr":["udp%3A%2F%2Ftracker.openbittorrent.com%3A80","udp%3A%2F%2Fopen.demonii.com%3A1337","udp%3A%2F%2Ftracker.coppersurfer.tk%3A6969","udp%3A%2F%2Fexodus.desync.com%3A6969"],"infoHash":"8106db5361fb124932ebc8f41d188095c1561e47","infoHashBuffer":{"type":"Buffer","data":[129,6,219,83,97,251,18,73,50,235,200,244,29,24,128,149,193,86,30,71]},"announce":[],"urlList":[]}}